{"title":"Larry The Cable Guy - Git-R-Done DVDrip","uid":8041887,"size":909543482,"categoryP":"video","categoryS":"movies","magnet":"?xt=urn:btih:fbfc29ed4c13776147c913132ddbafcee01d366a&amp;dn=Larry+The+Cable+Guy+-+Git-R-Done+DVDrip&amp;tr=udp%3A%2F%2Ftracker.openbittorrent.com%3A80&amp;tr=udp%3A%2F%2Fopen.demonii.com%3A1337&amp;tr=udp%3A%2F%2Ftracker.coppersurfer.tk%3A6969&amp;tr=udp%3A%2F%2Fexodus.desync.com%3A6969","seeders":1,"leechers":1,"uploader":"Armani-1","files":3,"time":1358651201,"description":"Screens &lt;a href=&quot;\nhttp://cdn.piczend.com/images/Xm00ruvv/1358647542_vlcsnap-2013-01-18-18h23m17s9.png&quot; rel=&quot;nofollow&quot; target=&quot;_NEW&quot;&gt;\nhttp://cdn.piczend.com/images/Xm00ruvv/1358647542_vlcsnap-2013-01-18-18h23m17s9.png&lt;/a&gt; &lt;a href=&quot;\nhttp://cdn.piczend.com/images/NyI5A4V4/1358647544_vlcsnap-2013-01-18-18h23m22s58.png&quot; rel=&quot;nofollow&quot; target=&quot;_NEW&quot;&gt;\nhttp://cdn.piczend.com/images/NyI5A4V4/1358647544_vlcsnap-2013-01-18-18h23m22s58.png&lt;/a&gt; &lt;a href=&quot;\nhttp://cdn.piczend.com/images/dR0vOFnQ/1358647546_vlcsnap-2013-01-18-18h23m26s100.png&quot; rel=&quot;nofollow&quot; target=&quot;_NEW&quot;&gt;\nhttp://cdn.piczend.com/images/dR0vOFnQ/1358647546_vlcsnap-2013-01-18-18h23m26s100.png&lt;/a&gt; &lt;a href=&quot;\nhttp://cdn.piczend.com/images/xeXcKQTQ/1358647547_vlcsnap-2013-01-18-18h23m34s183.png&quot; rel=&quot;nofollow&quot; target=&quot;_NEW&quot;&gt;\nhttp://cdn.piczend.com/images/xeXcKQTQ/1358647547_vlcsnap-2013-01-18-18h23m34s183.png&lt;/a&gt; &lt;a href=&quot;\nhttp://cdn.piczend.com/images/QKcVO3jJ/1358647546_vlcsnap-2013-01-18-18h23m40s238.png&quot; rel=&quot;nofollow&quot; target=&quot;_NEW&quot;&gt;\nhttp://cdn.piczend.com/images/QKcVO3jJ/1358647546_vlcsnap-2013-01-18-18h23m40s238.png&lt;/a&gt; &lt;a href=&quot;\nhttp://cdn.piczend.com/images/oln6WVsM/1358647547_vlcsnap-2013-01-18-18h23m45s33.png&quot; rel=&quot;nofollow&quot; target=&quot;_NEW&quot;&gt;\nhttp://cdn.piczend.com/images/oln6WVsM/1358647547_vlcsnap-2013-01-18-18h23m45s33.png&lt;/a&gt;\n\n\nInfo :\nVideo\nID : 0\nFormat : MPEG-4 Visual\nFormat profile : Advanced Simple@L5\nFormat settings, BVOP : 2\nFormat settings, QPel : No\nFormat settings, GMC : No warppoints\nFormat settings, Matrix : Default (H.263)\nMuxing mode : Packed bitstream\nCodec ID : XVID\nCodec ID/Hint : XviD\nDuration : 1h 5mn\nBit rate : 1 394 Kbps\nWidth : 640 pixels\nHeight : 364 pixels\nDisplay aspect ratio : 16:9\nFrame rate : 29.970 fps\nColor space : YUV\nChroma subsampling : 4:2:0\nBit depth : 8 bits\nScan type : Progressive\nCompression mode : Lossy\nBits/(Pixel*Frame) : 0.200\nStream size : 652 MiB (75%)\nWriting library : XviD 1.2.1 (UTC 2008-12-04)\n\nAudio\nID : 1\nFormat : AC-3\nFormat/Info : Audio Coding 3\nMode extension : CM (complete main)\nFormat settings, Endianness : Big\nCodec ID : 2000\nDuration : 1h 5mn\nBit rate mode : Constant\nBit rate : 448 Kbps\nChannel(s) : 6 channels\nChannel positions : Front: L C R, Side: L R, LFE\nSampling rate : 48.0 KHz\nBit depth : 16 bits\nCompression mode : Lossy\nStream size : 210 MiB (24%)\nAlignment : Aligned on interleaves\nInterleave, duration : 32 ms (0.96 video frame)\n","torrent":{"xt":"urn:btih:fbfc29ed4c13776147c913132ddbafcee01d366a","amp;dn":"Larry+The+Cable+Guy+-+Git-R-Done+DVDrip","amp;tr":["udp%3A%2F%2Ftracker.openbittorrent.com%3A80","udp%3A%2F%2Fopen.demonii.com%3A1337","udp%3A%2F%2Ftracker.coppersurfer.tk%3A6969","udp%3A%2F%2Fexodus.desync.com%3A6969"],"infoHash":"fbfc29ed4c13776147c913132ddbafcee01d366a","infoHashBuffer":{"type":"Buffer","data":[251,252,41,237,76,19,119,97,71,201,19,19,45,219,175,206,224,29,54,106]},"announce":[],"urlList":[]}}